<?xml version="1.0" standalone="no"?>
<!DOCTYPE svg PUBLIC "-//W3C//DTD SVG 20010904//EN"
 "http://www.w3.org/TR/2001/REC-SVG-20010904/DTD/svg10.dtd">
<svg version="1.0" xmlns="http://www.w3.org/2000/svg"
 width="512.000000pt" height="512.000000pt" viewBox="0 0 512.000000 512.000000"
 preserveAspectRatio="xMidYMid meet">
<metadata>
Created by potrace 1.14, written by Peter Selinger 2001-2017
</metadata>
<g transform="translate(0.000000,512.000000) scale(0.100000,-0.100000)"
fill="#000000" stroke="none">
<path d="M1228 5115 c-2 -2 -30 -6 -63 -10 -310 -34 -652 -224 -858 -477 -131
-161 -237 -384 -276 -578 -6 -30 -13 -68 -17 -85 -12 -59 -11 -292 1 -380 26
-184 77 -333 168 -490 78 -134 126 -192 336 -401 l133 -134 -157 -157 c-204
-204 -289 -316 -366 -480 -52 -111 -98 -263 -114 -373 -13 -87 -12 -317 1
-401 94 -589 547 -1042 1130 -1132 94 -14 311 -16 399 -3 121 18 264 62 385
119 158 74 269 159 472 361 l158 157 157 -157 c207 -205 321 -291 480 -365
119 -54 261 -98 378 -115 64 -9 313 -10 384 -1 356 46 716 269 918 567 167
246 242 493 238 783 -2 147 -8 197 -35 307 -72 285 -176 453 -455 733 l-157
157 134 134 c162 162 201 205 254 276 128 174 213 379 248 600 18 113 13 351
-9 455 -23 110 -61 227 -100 311 -31 67 -110 203 -124 214 -3 3 -18 23 -33 45
-52 76 -175 194 -283 272 -162 117 -392 210 -590 239 -150 21 -383 8 -530 -30
-273 -71 -442 -177 -718 -450 l-157 -157 -158 157 c-207 206 -313 287 -482
366 -111 52 -263 98 -375 114 -49 6 -311 14 -317 9z m274 -924 c31 -12 74 -34
96 -49 36 -24 168 -149 286 -271 l39 -40 -318 -317 -317 -318 -153 155 c-190
192 -222 248 -230 399 -10 206 111 381 310 447 80 27 207 24 287 -6z m2414 4
c177 -67 291 -219 300 -399 3 -87 -7 -141 -47 -225 -24 -52 -57 -92 -183 -219
l-154 -156 -318 318 -318 318 155 153 c158 156 211 194 309 220 64 17 196 12
256 -10z m-1033 -1322 l313 -313 -318 -317 -318 -318 -317 318 -318 317 315
315 c173 173 318 314 323 312 4 -1 148 -143 320 -314z m-1275 -1269 l316 -317
-160 -157 c-167 -164 -202 -189 -313 -216 -64 -15 -189 -11 -241 9 -182 68
-290 208 -306 397 -7 77 15 177 54 248 21 38 315 352 330 352 2 0 146 -142
320 -316z m2368 176 c76 -77 151 -159 166 -181 90 -134 99 -326 22 -464 -55
-98 -161 -184 -269 -217 -56 -17 -170 -18 -234 -2 -100 26 -147 59 -310 220
l-155 152 316 316 c174 174 318 316 321 316 2 0 66 -63 143 -140z"/>
</g>
</svg>
